<?xml version="1.0" encoding="UTF-8" standalone="no"?>
<svg
   width="138.23mm"
   height="114.04mm"
   viewBox="0 0 391.84 323.25"
   version="1.1"
   id="svg28"
   sodipodi:docname="rsgo.svg"
   inkscape:version="1.1.1 (c3084ef, 2021-09-22)"
   xmlns:inkscape="http://www.inkscape.org/namespaces/inkscape"
   xmlns:sodipodi="http://sodipodi.sourceforge.net/DTD/sodipodi-0.dtd"
   xmlns="http://www.w3.org/2000/svg"
   xmlns:svg="http://www.w3.org/2000/svg">
  <defs
     id="defs32" />
  <sodipodi:namedview
     id="namedview30"
     pagecolor="#ffffff"
     bordercolor="#666666"
     borderopacity="1.0"
     inkscape:pageshadow="2"
     inkscape:pageopacity="0.0"
     inkscape:pagecheckerboard="0"
     inkscape:document-units="mm"
     showgrid="false"
     inkscape:zoom="1.3015718"
     inkscape:cx="109.48301"
     inkscape:cy="215.50866"
     inkscape:window-width="1296"
     inkscape:window-height="783"
     inkscape:window-x="0"
     inkscape:window-y="25"
     inkscape:window-maximized="0"
     inkscape:current-layer="svg28" />
  <title
     id="title2">logo_photo</title>
  <path
     d="M234.66,354.51c-42.32,0-84.64.54-126.95-.17-33.59-.56-63.21-28.66-67.08-62a130.62,130.62,0,0,1-.93-14.92q-.09-85.73,0-171.44c0-36.57,22.46-64.81,58.05-72.78a68.39,68.39,0,0,1,14.83-1.6q59.73-.19,119.46-.06,63,.09,125.94.34c36.33.09,65,23.34,72.2,58.79a71,71,0,0,1,1.28,13.89q.12,88.47,0,176.94c0,41-31.82,72.77-72.86,72.83q-56.48.09-113,0h-11Zm1.06-80.06c.14,2,.38,4,.38,5.95q.06,25,0,50v5.38c1.86.14,3,.31,4.14.31,39.66,0,79.31.19,119-.06,30.81-.19,53.89-23.49,54-54.31q.19-88.72,0-177.45a53,53,0,0,0-1.13-11.39c-5.6-25.54-26.26-42.44-52.52-42.56-39.66-.2-79.31-.06-119,0-1.3,0-2.61.16-4.44.28,0,2.16,0,4.12,0,6.08q-.19,19-.41,37.94c-10.32,0-20.64.09-31,0a10.5,10.5,0,0,0-10.14,5.88c-2.31,4.23-5.1,8.25-6.87,12.69-2.37,5.94-6.08,7.64-12.47,7.55-24.38-.35-41.58,17.23-41.6,41.76q0,34.71,0,69.41c0,25.34,17.21,42.48,42.64,42.53Q206,274.4,235.72,274.45Zm-74,40.3c6,.23,9.49-2.4,10.16-6.75.73-4.74-1.73-8.33-6.6-9.59-1.13-.29-2.28-.53-3.42-.75a64.61,64.61,0,0,1-52.25-55.28c-.79-5.67-4.72-8.83-9.94-8-4.73.77-7.55,5.15-6.75,10.49,2.25,14.95,7.78,28.52,17.37,40.27C124,301.85,141.52,311.78,161.75,314.75Zm1.14-237.3c-.5,0-1,.07-1.5.13-29.79,3.3-60.11,29.39-67.2,58.09-.51,2-.29,5.22,1,6.5,2,2,5.14,3.84,7.89,4,4,.22,6.25-3.07,7.53-6.82,7.27-21.26,21.67-35.43,42.87-42.66,3.58-1.23,7.45-1.62,11.16-2.51,4.83-1.16,7.56-4.92,7-9.45A8.48,8.48,0,0,0,162.89,77.45ZM77.79,282.58c-8.07.08-11.94,6.25-9.33,12.15a68.37,68.37,0,0,0,28,31.51c4.67,2.81,9.65,1.56,12.13-2.69,2.37-4.07,1.21-8.69-3.39-11.54-9.61-5.95-16.56-14.09-21.7-24.12C82.19,285.31,79,283.68,77.79,282.58Zm1.4-179.19A51.7,51.7,0,0,0,84.92,98c3.72-4.44,6.68-9.59,10.76-13.62,3.73-3.67,8.54-6.24,12.86-9.31,3.85-2.74,5-7.11,3-10.92-2-3.65-6.38-5.67-10.17-3.89a64.75,64.75,0,0,0-32,32.12C67,97.49,71.57,103.46,79.19,103.39Z"
     transform="translate(-39.66 -31.46)"
     id="path4" />
  <path
     d="M235.71,94.55q.21-19,.41-37.94c0-2,0-3.92,0-6.08,1.83-.12,3.14-.28,4.44-.28,39.66,0,79.31-.15,119,0,26.26.12,46.92,17,52.52,42.56a53,53,0,0,1,1.13,11.39q.1,88.73,0,177.45c-.07,30.82-23.15,54.12-54,54.31-39.66.25-79.31.07-119,.06-1.14,0-2.28-.17-4.14-.31v-5.38q0-25,0-50c0-2-.24-4-.38-5.95l-.16.13c23-.07,45.94-.08,68.91-.24,23.39-.16,41-17.84,41.06-41.17.06-28.8,0-57.6,0-86.4,0-10.81-4.61-18.77-14.11-24a6.32,6.32,0,0,1-2.77-3.45c-1.53-5.4-4.21-7.93-9.79-8.22-3.82-.2-7.65-.08-11.48-.06-8.35,0-10.25,1.33-13.34,9.09-5.43.5-5.42.49-7.82-3.78-2.85-5.06-5.84-10-8.53-15.19-2.41-4.62-5.88-6.77-11.2-6.68-10.31.19-20.63,0-30.95-.06Z"
     transform="translate(-39.66 -31.46)"
     fill="#fff"
     id="path6"
     style="fill:#fbc02d;fill-opacity:1" />
  <path
     d="M235.72,274.45q-29.7-.06-59.41-.12c-25.43-.05-42.62-17.19-42.64-42.53q0-34.71,0-69.41c0-24.53,17.22-42.11,41.6-41.76,6.39.09,10.1-1.61,12.47-7.55,1.77-4.44,4.56-8.46,6.87-12.69a10.5,10.5,0,0,1,10.14-5.88c10.32.13,20.64,0,31,0l-.14-.14v32.75c-37.41,6.75-58.75,27.32-59.95,57.33-.59,14.86,3,28.38,12,40.25,12,15.85,28.31,23.62,47.95,24.54v25.3Z"
     transform="translate(-39.66 -31.46)"
     fill="#fff"
     id="path8"
     style="fill:#fbc02d;fill-opacity:1" />
  <path
     d="M161.75,314.75c-20.23-3-37.77-12.9-51.43-29.6C100.73,273.4,95.2,259.83,93,244.88c-.8-5.34,2-9.72,6.75-10.49,5.22-.84,9.15,2.32,9.94,8a64.61,64.61,0,0,0,52.25,55.28c1.14.22,2.29.46,3.42.75,4.87,1.26,7.33,4.85,6.6,9.59C171.24,312.35,167.77,315,161.75,314.75Z"
     transform="translate(-39.66 -31.46)"
     fill="#fff"
     id="path10" />
  <path
     d="M162.89,77.45a8.48,8.48,0,0,1,8.72,7.27c.57,4.53-2.16,8.29-7,9.45-3.71.89-7.58,1.28-11.16,2.51-21.2,7.23-35.6,21.4-42.87,42.66-1.28,3.75-3.5,7-7.53,6.82-2.75-.15-5.88-2-7.89-4-1.27-1.28-1.49-4.47-1-6.5,7.09-28.7,37.41-54.79,67.2-58.09C161.89,77.52,162.39,77.49,162.89,77.45Z"
     transform="translate(-39.66 -31.46)"
     fill="#fff"
     id="path12" />
  <path
     d="M77.79,282.58c1.22,1.1,4.4,2.73,5.72,5.31,5.14,10,12.09,18.17,21.7,24.12,4.6,2.85,5.76,7.47,3.39,11.54-2.48,4.25-7.46,5.5-12.13,2.69a68.37,68.37,0,0,1-28-31.51C65.85,288.83,69.72,282.66,77.79,282.58Z"
     transform="translate(-39.66 -31.46)"
     fill="#fff"
     id="path14" />
  <path
     d="M79.19,103.39c-7.62.07-12.24-5.9-9.86-11a64.75,64.75,0,0,1,32-32.12c3.79-1.78,8.22.24,10.17,3.89,2,3.81.86,8.18-3,10.92-4.32,3.07-9.13,5.64-12.86,9.31-4.08,4-7,9.18-10.76,13.62A51.7,51.7,0,0,1,79.19,103.39Z"
     transform="translate(-39.66 -31.46)"
     fill="#fff"
     id="path16" />
  <path
     d="M235.56,274.58v-25.3c-19.64-.92-36-8.69-47.95-24.54-9-11.87-12.58-25.39-12-40.25,1.2-30,22.54-50.58,59.95-57.33V94.41c10.32,0,20.64.25,30.95.06,5.32-.09,8.79,2.06,11.2,6.68,2.69,5.14,5.68,10.13,8.53,15.19,2.4,4.27,2.39,4.28,7.82,3.78,3.09-7.76,5-9.06,13.34-9.09,3.83,0,7.66-.14,11.48.06,5.58.29,8.26,2.82,9.79,8.22a6.32,6.32,0,0,0,2.77,3.45c9.5,5.24,14.12,13.2,14.11,24,0,28.8,0,57.6,0,86.4,0,23.33-17.67,41-41.06,41.17C281.5,274.5,258.53,274.51,235.56,274.58Zm.17-128c-28.3,1.75-46.9,26.31-39.93,52.74,4.7,17.82,19.43,29.32,39.93,31.17V249.1c23.85-1,41.6-10.72,52.83-30.41,12.26-21.52,11.43-43.46-2.24-64.14-11.59-17.56-28.62-26-50.59-26.87Zm75.93,3.07a12.82,12.82,0,0,0,12.94-13,12.93,12.93,0,0,0-25.85,0A12.8,12.8,0,0,0,311.66,149.61Z"
     transform="translate(-39.66 -31.46)"
     id="path18" />
  <path
     d="M235.73,146.54V127.68c22,.89,39,9.31,50.59,26.87,13.67,20.68,14.5,42.62,2.24,64.14-11.23,19.69-29,29.45-52.83,30.41V230.45l-.16.13,3-.25c27.18-2.66,44.9-27.22,38.06-52.77-4.9-18.29-19.85-29.63-41-31.15Z"
     transform="translate(-39.66 -31.46)"
     fill="#fff"
     id="path20" />
  <path
     d="M235.73,230.45c-20.5-1.85-35.23-13.35-39.93-31.17-7-26.43,11.63-51,39.93-52.74l-.16-.13c.13,2,.37,4,.38,5.94q0,33.15,0,66.31c0,4-.25,8-.38,11.92Z"
     transform="translate(-39.66 -31.46)"
     fill="#fff"
     id="path22" />
  <path
     d="M311.66,149.61a12.8,12.8,0,0,1-12.91-13,12.93,12.93,0,0,1,25.85,0A12.82,12.82,0,0,1,311.66,149.61Z"
     transform="translate(-39.66 -31.46)"
     fill="#fff"
     id="path24" />
  <path
     d="M235.57,230.58c.13-4,.37-8,.38-11.92q0-33.16,0-66.31c0-2-.25-4-.38-5.94,21.19,1.52,36.14,12.86,41,31.15,6.84,25.55-10.88,50.11-38.06,52.77Z"
     transform="translate(-39.66 -31.46)"
     id="path26" />
</svg>
