<svg id="Layer_1" data-name="Layer 1" xmlns="http://www.w3.org/2000/svg" viewBox="0 0 543.41 543.44">
  <title>Untitled-1</title>
  <g>
    <path d="M271.31,0C419.79,0,541.4,119.2,543.38,268.09c2,151.44-119.75,273.69-268.15,275.34C124.11,545.1.94,424.28,0,273.19-.93,123.64,120.11.53,271.31,0Zm244,271.85C515.13,136.54,404.93,27.28,270,28.23S27.21,139.87,28.15,273.61,139.37,517.2,275.26,515.29C406.89,513.44,515.06,405.9,515.28,271.85Z" transform="translate(0.01 0)"/>
    <path d="M515.28,271.85c-.22,134-108.39,241.59-240,243.44-135.89,1.91-246.17-108-247.11-241.68S135.07,29.18,270,28.23,515.13,136.54,515.28,271.85Zm-126.51.49c.32-64.8-52.24-117.09-115.89-117.64-66.14-.56-118.83,53.44-118.25,118.29.56,63.43,53,116.26,117.92,115.86C336.27,388.45,388.87,336,388.77,272.34Z" transform="translate(0.01 0)" style="fill: #fff"/>
    <path d="M388.77,272.34c.1,63.64-52.5,116.11-116.22,116.51-64.91.4-117.36-52.43-117.92-115.86-.58-64.85,52.11-118.85,118.25-118.29C336.53,155.25,389.09,207.54,388.77,272.34Z" transform="translate(0.01 0)" style="fill: #e5261e"/>
  </g>
</svg>
